<?xml version="1.0" encoding="UTF-8"?>
<!-- Generator: Adobe Illustrator 15.1.0, SVG Export Plug-In . SVG Version: 6.00 Build 0)  -->
<!DOCTYPE svg PUBLIC "-//W3C//DTD SVG 1.1//EN" "http://www.w3.org/Graphics/SVG/1.1/DTD/svg11.dtd">
<svg version="1.1" id="Layer_1" xmlns="http://www.w3.org/2000/svg" xmlns:xlink="http://www.w3.org/1999/xlink" x="0px" y="0px" width="1000px" height="842px" viewBox="0 0 1000 842" enable-background="new 0 0 1000 842" xml:space="preserve">
<g>
	<rect x="200" y="2" fill="none" width="764" height="869"/>
	<path fill="#F02D09" d="M234.272,1.998h20.4l34.272,97.241h-20.536l-6.528-20.672h-35.088L220.4,99.239h-19.992L234.272,1.998z    M231.417,63.471h25.704l-8.704-28.017c-1.632-5.168-3.944-14.96-3.944-14.96h-0.272c0,0-2.448,9.792-4.08,14.96L231.417,63.471z"/>
	<path fill="#F02D09" d="M297.104,1.998h43.521c10.472,0,18.496,2.584,23.528,7.072c5.304,4.76,7.752,10.608,7.752,18.224   c0,9.929-6.12,16.32-15.232,19.448v0.408c10.744,3.128,18.088,12.104,18.088,24.072c0,9.112-2.855,15.368-8.567,20.265   c-5.576,4.896-14.145,7.752-24.48,7.752h-44.608L297.104,1.998L297.104,1.998z M338.176,41.167c8.568,0,14.416-4.08,14.416-11.696   c0-7.208-5.304-11.425-14.008-11.425h-21.76v23.121H338.176z M316.824,82.919h22.712c9.52,0,15.231-5.304,15.231-13.192   c0-9.248-6.8-14.008-15.775-14.008h-22.168V82.919z"/>
	<path fill="#F02D09" d="M382.781,50.959c0-28.833,17.952-50.865,46.646-50.865c23.938,0,38.081,14.28,40.121,32.776h-19.584   c-1.768-9.792-9.111-16.184-20.536-16.184c-17.952,0-26.521,14.96-26.521,34.272c0,19.855,10.336,34.136,26.656,34.136   c11.561,0,19.721-6.936,20.942-17.136h19.312c-0.544,8.568-4.216,16.864-10.744,22.984c-6.664,6.256-16.048,10.336-29.513,10.336   C402.229,101.279,382.781,80.199,382.781,50.959z"/>
	<path fill="#F02D09" d="M480.02,1.998h37.945c25.978,0,42.704,20.944,42.704,49.641c0,15.776-5.304,29.648-15.504,38.217   c-7.208,5.983-16.593,9.384-28.833,9.384H480.02V1.998z M514.973,82.239c18.496,0,25.704-11.288,25.704-30.601   s-8.432-32.776-25.16-32.776H499.74v63.377H514.973z"/>
	<path fill="#F02D09" d="M571.412,1.998h71.536V18.59h-51.816v21.761h45.425v16.185h-45.425v26.248h52.227V99.24h-71.944   L571.412,1.998L571.412,1.998z"/>
	<path fill="#F02D09" d="M655.595,1.998h69.633v16.729h-49.913v23.392h42.299v16.864h-42.299V99.24h-19.72V1.998z"/>
	<path fill="#F02D09" d="M804.243,86.184h-0.271c-6.664,11.151-15.774,15.096-27.336,15.096c-14.688,0-26.11-5.304-34.137-14.146   c-8.024-8.976-12.648-21.488-12.648-36.176c0-16.185,5.712-30.329,15.912-39.713c7.891-7.208,18.227-11.152,31.28-11.152   c24.48,0,38.489,13.465,41.617,32.505h-19.312c-2.176-9.384-9.384-16.185-21.896-16.185c-18.36,0-27.475,15.232-27.475,34.545   c0,19.855,10.475,34.408,27.201,34.408c15.098,0,25.023-11.288,25.023-22.032V62.79h-23.394V47.559h40.938V99.24h-14.824   L804.243,86.184z"/>
	<path fill="#F02D09" d="M833.482,1.998h19.72v38.08h38.217V1.998h19.72v97.241h-19.72V56.398h-38.217v42.841h-19.72V1.998z"/>
	<path fill="#F02D09" d="M207.616,121.998h19.72v97.241h-19.72V121.998z"/>
	<path fill="#F02D09" d="M236.348,192.719v-9.656h17.68v8.433c0,9.792,4.488,13.6,12.512,13.6s11.696-4.76,11.696-13.328v-69.769   h19.72v69.905c0,16.592-9.656,29.104-29.785,29.104C248.044,221.007,236.348,211.759,236.348,192.719z"/>
	<path fill="#F02D09" d="M310.777,121.998h19.72v38.761l37.4-38.761h24.479l-38.081,38.896l40.529,58.345h-23.121l-31.28-45.425   l-9.928,10.064v35.36h-19.72L310.777,121.998L310.777,121.998z"/>
	<path fill="#F02D09" d="M401.527,121.998h19.72v80.785h45.697v16.456h-65.417V121.998z"/>
	<path fill="#F02D09" d="M476.636,121.998h27.745l13.735,48.824c3.398,12.24,6.12,26.249,6.12,26.249h0.271   c0,0,2.584-14.009,5.983-26.249l13.734-48.824h28.152v97.241h-18.36v-55.761c0-7.888,0.816-20.128,0.816-20.128h-0.272   c0,0-2.176,11.424-4.216,18.496l-16.729,57.393h-18.903l-16.321-57.393c-2.04-7.072-4.216-18.496-4.216-18.496h-0.271   c0,0,0.814,12.24,0.814,20.128v55.761h-18.088v-97.241H476.636L476.636,121.998z"/>
	<path fill="#F02D09" d="M586.426,121.998h19.992l32.368,54.265c3.128,5.304,6.8,13.601,6.8,13.601h0.272   c0,0-0.544-10.064-0.544-16.864v-51.001h19.446v97.241H645.72l-33.184-53.721c-3.128-5.168-6.938-13.464-6.938-13.464h-0.271   c0,0,0.544,10.2,0.544,17v50.185h-19.448L586.426,121.998L586.426,121.998z"/>
	<path fill="#F02D09" d="M674.59,170.822c0-29.104,18.227-50.729,46.921-50.729c28.696,0,46.784,21.625,46.784,50.729   c0,29.104-18.088,50.593-46.784,50.593C692.815,221.415,674.59,199.927,674.59,170.822z M748.167,170.822   c0-19.448-8.704-34.544-26.521-34.544c-17.817,0-26.93,15.096-26.93,34.544c0,19.312,9.111,34.409,26.93,34.409   C739.463,205.231,748.167,190.135,748.167,170.822z"/>
	<path fill="#F02D09" d="M778.124,121.998h42.704c11.288,0,19.721,3.264,25.433,9.112c5.439,5.576,8.704,13.192,8.704,22.168   c0,18.36-12.104,30.736-32.505,30.736h-23.937v35.225h-20.399V121.998L778.124,121.998z M798.523,167.967h20.398   c10.336,0,15.776-5.712,15.776-14.553c0-9.111-5.712-14.279-15.504-14.279h-20.673L798.523,167.967L798.523,167.967z"/>
	<path fill="#F02D09" d="M932.521,214.751c-6.938,4.216-15.368,6.664-24.891,6.664c-28.696,0-46.646-21.488-46.646-50.593   c0-29.105,17.95-50.729,46.646-50.729c28.697,0,46.513,21.625,46.513,50.729c0,13.328-3.808,25.024-10.605,33.865l10.336,9.248   l-10.063,11.016L932.521,214.751z M919.192,202.647l-8.568-7.889l10.064-10.88l8.84,8.16c2.992-5.849,4.486-13.192,4.486-21.217   c0-19.448-8.432-34.544-26.247-34.544s-26.655,15.096-26.655,34.544c0,19.312,8.84,34.409,26.655,34.409   C912.12,205.231,915.929,204.415,919.192,202.647z"/>
	<path fill="#F02D09" d="M207.629,241.998h45.5c19.143,0,31.905,10.88,31.905,27.064c0,11.424-5.41,20.128-18.172,23.528v0.408   c9.155,2.584,13.872,7.752,15.12,19.584c1.387,13.736,0.833,24.208,4.3,25.704v0.952H267c-2.497-1.088-2.774-11.968-3.606-22.44   c-0.833-10.607-6.936-16.592-19.42-16.592h-16.23v39.032H207.63L207.629,241.998L207.629,241.998z M227.744,284.975h21.362   c10.959,0,16.369-5.576,16.369-13.328c0-7.888-5.132-13.736-15.813-13.736h-21.917L227.744,284.975L227.744,284.975z"/>
	<path fill="#F02D09" d="M335.11,301.703h-16.369v37.536h-20.808v-97.241h43.558c11.513,0,20.114,3.264,25.939,9.112   c5.55,5.576,8.878,12.376,8.878,21.08c0,13.601-7.213,23.12-19.697,27.2l24.831,39.849h-23.306L335.11,301.703z M318.742,285.654   h20.808c10.542,0,16.091-4.76,16.091-13.328c0-8.84-5.825-13.191-15.813-13.191h-21.085V285.654L318.742,285.654z"/>
	<path fill="#F02D09" d="M384.356,309.183h19.697c1.389,11.696,8.187,16.32,22.334,16.32c10.267,0,19.282-3.536,19.282-12.512   c0-9.521-9.433-11.425-24.553-14.824c-17.756-3.944-33.986-8.568-33.986-28.833c0-19.176,15.953-29.104,38.009-29.104   c22.333,0,36.762,10.744,38.286,30.328h-19.281c-1.109-9.792-8.879-14.688-19.144-14.688c-10.82,0-17.895,4.488-17.895,11.424   c0,7.889,6.936,10.2,21.64,13.329c20.392,4.352,37.038,9.111,37.038,30.056c0,19.722-16.23,30.736-38.563,30.736   C400.309,341.415,385.05,329.719,384.356,309.183z"/>
	<path fill="#F02D09" d="M468.56,241.998h79.765v16.592H518.5v80.649h-20.114V258.59H468.56V241.998z"/>
	<path fill="#F02D09" d="M557.617,307.959v-65.961h20.114v65.961c0,10.064,5.133,17.136,18.588,17.136   c12.763,0,18.728-7.344,18.728-17.407V242h20.113v65.961c0,20.809-13.039,32.912-38.424,32.912   C571.073,340.871,557.617,329.039,557.617,307.959z"/>
	<path fill="#F02D09" d="M642.236,241.998h21.085l17.479,56.305c1.942,6.394,4.302,15.503,4.302,15.503h0.276   c0,0,2.357-9.248,4.3-15.503l17.34-56.305h20.394l-33.431,97.241h-18.312L642.236,241.998z"/>
	<path fill="#F02D09" d="M730.461,241.998h20.53l12.899,48.28c1.941,8.297,4.302,21.217,4.302,21.217h0.275   c0,0,2.497-12.104,4.578-20.673l10.819-48.824h19.421l10.818,48.688c2.081,8.568,4.577,20.809,4.577,20.809h0.277   c0,0,2.913-12.92,4.855-21.353l12.482-48.145h19.837l-28.299,97.241h-18.727l-12.068-52.089   c-1.665-7.072-3.468-17.271-3.468-17.271H793.3c0,0-1.523,10.199-3.188,17.271l-12.207,52.089h-18.588L730.461,241.998z"/>
	<path fill="#F02D09" d="M889.986,288.375L860.3,241.998h22.611l18.311,30.736h0.277l18.311-30.736h21.919l-29.132,46.24   l32.876,51.001H922.03l-20.253-35.496H901.5l-20.53,35.496h-23.025L889.986,288.375z"/>
	<path fill="#F02D09" d="M233.57,421.703l-33.015-59.705h21.917l14.981,28.832c3.052,5.849,6.52,13.872,6.52,13.872h0.277   c0,0,3.745-8.023,6.658-13.872l14.704-28.832h21.085l-33.015,59.705v37.536H233.57V421.703z"/>
	<path fill="#F02D09" d="M288.919,444.415l54.1-65.553v-0.408h-50.631v-16.456h74.491v16.456l-52.296,63.647v0.407h53.268v16.729   h-78.93L288.919,444.415L288.919,444.415z"/>
	<path fill="#F02D09" d="M398.368,391.103H376.45V378.59c11.93-0.407,22.472-4.352,24.553-16.863h17.201v97.514h-19.836V391.103z"/>
	<path fill="#F02D09" d="M456.074,420.615c12.483-9.656,26.079-16.457,26.079-28.969c0-9.112-4.716-15.368-13.733-15.368   c-10.126,0-16.229,7.208-16.507,19.855h-18.312c0-22.169,11.652-35.903,35.234-35.903c21.917,0,33.57,14.144,33.57,30.871   c0,18.36-12.763,26.792-24.97,34.816c-7.63,4.76-16.784,11.288-20.113,17.544h45.638v15.776h-70.746   C432.909,440.607,444.838,429.319,456.074,420.615z"/>
	<path fill="#F02D09" d="M509.342,426.463h18.588c0.832,11.968,5.965,19.312,19.562,19.312c11.097,0,17.339-5.984,17.339-15.912   c0-9.385-5.688-14.824-17.896-14.824h-6.104v-14.416h5.688c9.436,0,15.953-4.896,15.953-13.057c0-7.616-5.41-12.784-14.011-12.784   c-11.375,0-16.924,7.208-17.34,17.271h-18.588c0.691-19.177,12.898-31.961,35.928-31.961c20.669,0,33.847,9.93,33.847,26.112   c0,11.017-7.213,17.408-17.062,20.536v0.271c12.623,2.992,19.975,10.608,19.975,24.072c0,20.265-16.507,29.92-37.037,29.92   C522.658,461.007,509.619,447.679,509.342,426.463z"/>
	<path fill="#F02D09" d="M638.349,437.887h-45.775v-20.128l45.083-56.439h19.697v61.337h14.844v15.229h-14.844v21.354h-19.005   V437.887z M608.246,422.655h30.103v-37.81h-0.275l-29.825,37.4L608.246,422.655L608.246,422.655z"/>
	<path fill="#F02D09" d="M676.774,431.087h19.143c1.804,9.792,9.71,14.28,20.114,14.28c11.234,0,17.895-8.024,17.895-18.496   c0-11.696-7.074-17.952-17.895-17.952c-7.63,0-13.181,2.855-15.952,6.12h-18.866l9.571-53.041h57.982v15.912h-44.39l-3.745,21.217   h0.277c4.3-3.673,11.098-5.984,20.253-5.984c17.895,0,33.015,12.513,33.015,33.729c0,20.264-16.092,34.544-37.729,34.544   C694.392,461.415,678.577,449.991,676.774,431.087z"/>
	<path fill="#F02D09" d="M762.362,412.047c-0.141-17.137,3.33-31.009,12.208-40.801c6.381-7.072,15.396-11.152,28.853-11.152   c20.394,0,31.353,10.608,33.85,25.024h-18.866c-1.389-5.983-5.548-10.2-14.287-10.2c-14.427,0-21.918,10.608-21.918,27.881h0.275   c5.135-6.12,11.932-10.2,23.582-10.2c18.312,0,34.402,14.009,34.402,34.682c0,19.99-16.229,34.136-36.897,34.136   C775.125,461.415,762.641,438.567,762.362,412.047z M821.734,427.551c0-11.016-7.907-19.448-18.729-19.448   c-12.483,0-19.559,8.16-19.559,19.312c0,11.016,7.904,18.904,19.42,18.904C813.688,446.319,821.734,438.023,821.734,427.551z"/>
	<path fill="#F02D09" d="M894.425,378.59v-0.271H845.18v-16.32h70.607v15.641c-17.756,17.681-34.402,46.24-35.928,81.602h-21.227   C859.884,423.471,879.304,393.822,894.425,378.59z"/>
	<path fill="#F02D09" d="M203.672,551.087c0-11.968,7.072-21.08,17.68-25.296v-0.408c-8.568-3.809-13.6-10.2-13.6-19.584   c0-16.457,14.008-25.705,34.953-25.705c21.08,0,34.272,9.112,34.272,25.435c0,9.11-5.168,15.504-13.464,19.446v0.408   c10.744,3.944,17.544,13.058,17.544,24.889c0,19.991-16.185,31.146-38.217,31.146C220.808,581.416,203.672,570.671,203.672,551.087   z M261.337,550.271c0-9.93-6.664-16.456-18.632-16.456c-11.832,0-19.176,6.526-19.176,16.456c0,9.521,7.072,15.641,18.904,15.641   C253.856,565.911,261.337,559.519,261.337,550.271z M258.208,507.431c0-7.752-5.712-12.782-15.776-12.782   c-10.2,0-15.912,5.03-15.912,12.782c0,7.616,5.712,13.058,15.912,13.058C252.497,520.486,258.208,515.047,258.208,507.431z"/>
	<path fill="#F02D09" d="M290.575,555.983h18.632c1.632,5.848,6.528,10.742,15.232,10.742c6.119,0,10.743-1.902,14.144-6.257   c3.808-4.76,6.256-12.92,6.392-22.982h-0.271c-5.168,5.982-11.968,10.606-22.576,10.606c-19.72,0-34.816-13.328-34.816-34   c0-19.992,15.776-34.001,36.583-34.001c25.841,0,40.257,16.187,40.257,49.233c0,31.008-10.473,52.088-39.168,52.088   C304.72,581.415,292.751,570.535,290.575,555.983z M344.568,514.095c0-11.15-8.16-19.04-19.584-19.04   c-11.561,0-19.312,8.296-19.312,18.77c0,11.017,6.938,19.04,19.176,19.04C336.136,532.862,344.568,525.247,344.568,514.095z"/>
	<path fill="#F02D09" d="M372.31,530.688c0-31.146,16.049-50.594,40.801-50.594c25.161,0,40.393,19.312,40.393,50.594   c0,31.01-15.23,50.729-40.528,50.729C388.086,581.415,372.31,561.695,372.31,530.688z M433.374,530.688   c0-20.535-5.984-34.407-20.264-34.407c-14.554,0-20.673,13.734-20.673,34.407c0,20.535,6.12,34.546,20.673,34.546   C427.526,565.231,433.374,551.495,433.374,530.688z"/>
	<path fill="#F02D09" d="M505.317,571.487h-0.272c-3.535,5.304-8.566,9.384-20.536,9.384c-14.28,0-24.344-7.479-24.344-21.354   c0-15.366,12.512-20.264,28.017-22.438c11.562-1.633,16.863-2.584,16.863-7.89c0-5.031-3.943-8.297-11.695-8.297   c-8.703,0-12.92,3.128-13.464,9.792H463.43c0.544-12.238,9.656-22.982,30.058-22.982c20.942,0,29.376,9.385,29.376,25.704v35.497   c0,5.304,0.814,8.432,2.446,9.654v0.682h-17.813C506.406,577.879,505.726,574.615,505.317,571.487z M505.453,554.623V544.15   c-3.264,1.902-8.295,2.99-12.919,4.08c-9.656,2.177-14.417,4.353-14.417,10.881c0,6.525,4.352,8.84,10.88,8.84   C499.605,567.951,505.453,561.423,505.453,554.623z"/>
	<path fill="#F02D09" d="M576.443,570.943c-3.672,5.304-9.248,9.928-21.218,9.928c-14.278,0-24.07-7.344-24.07-21.216   c0-15.368,12.512-20.4,28.017-22.576c11.562-1.633,16.864-2.584,16.864-7.889c0-5.032-4.354-8.298-12.376-8.298   c-8.704,0-12.784,2.992-13.192,9.792h-16.456c0.407-12.238,9.386-22.982,29.92-22.982c21.219,0,29.92,9.385,29.92,25.704v28.561   c0,4.488,0.816,6.12,4.896,5.44h0.408v11.288c-1.632,0.814-3.811,1.632-7.891,1.632   C582.428,580.327,577.939,577.743,576.443,570.943z M576.443,554.623v-10.336c-3.266,1.903-8.297,2.992-12.92,4.08   c-9.656,2.176-14.416,4.216-14.416,10.744c0,6.392,4.353,8.84,10.88,8.84C570.596,567.951,576.443,561.423,576.443,554.623z"/>
	<path fill="#F02D09" d="M623.771,570.535h-0.272v8.704h-17.815v-97.241h18.496v35.904h0.408c3.81-5.85,9.792-10.336,19.448-10.336   c17.544,0,30.056,15.096,30.056,36.854c0,22.576-11.968,36.856-29.512,36.856C634.787,581.279,627.851,577.062,623.771,570.535z    M655.323,544.423c0-12.92-5.168-21.896-15.505-21.896c-11.695,0-16.05,9.385-16.05,22.305c0,12.784,6.394,20.944,16.729,20.944   C650.019,565.775,655.323,557.887,655.323,544.423z"/>
	<path fill="#F02D09" d="M679.258,544.423c0-20.809,13.603-36.854,34.816-36.854c18.088,0,29.24,10.472,31.688,25.566h-18.088   c-1.225-6.12-5.984-10.744-12.784-10.744c-11.15,0-16.862,8.568-16.862,22.032c0,13.192,5.304,22.032,16.592,22.032   c7.479,0,12.784-3.944,14.008-11.832h17.815c-1.225,14.824-12.783,26.656-31.416,26.656   C692.994,581.279,679.258,565.231,679.258,544.423z"/>
	<path fill="#F02D09" d="M751.065,544.423c0-21.761,12.376-36.854,29.782-36.854c9.792,0,15.912,4.486,19.723,10.336h0.408V482   h18.494v97.241h-17.814v-9.112h-0.272c-4.08,6.664-11.016,11.152-20.808,11.152C763.033,581.279,751.065,566.999,751.065,544.423z    M801.386,544.831c0-13.328-4.352-22.305-16.184-22.305c-10.2,0-15.368,8.977-15.368,21.896c0,13.464,5.304,21.354,14.824,21.354   C795.674,565.775,801.386,557.615,801.386,544.831z"/>
	<path fill="#F02D09" d="M828.041,544.287c0-20.673,14.008-36.721,34.408-36.721c22.438,0,34.408,17.136,34.408,42.022h-50.594   c1.359,10.744,7.346,17.408,17.815,17.408c7.209,0,11.425-3.264,13.465-8.568h18.226c-2.584,12.377-13.602,22.851-31.554,22.851   C841.098,581.279,828.041,565.095,828.041,544.287z M846.537,536.807h31.009c-0.544-8.84-6.393-14.96-14.824-14.96   C852.93,521.847,848.169,527.694,846.537,536.807z"/>
	<path fill="#F02D09" d="M201.942,629.471h9.71v-6.256c0-17.001,13.456-22.982,31.627-21.081v14.28   c-8.878-0.408-12.762,0.681-12.762,7.889v5.168h12.762v12.784h-12.762v56.984h-18.866v-56.984h-9.71L201.942,629.471   L201.942,629.471z"/>
	<path fill="#F02D09" d="M247.857,701.279h18.727c1.526,4.352,5.549,7.752,14.288,7.752c10.681,0,15.814-5.032,15.814-14.553v-7.615   h-0.416c-4.162,4.624-9.572,8.16-18.588,8.16c-15.814,0-31.35-12.24-31.35-33.32c0-20.811,12.762-34.137,30.795-34.137   c8.878,0,15.397,3.398,19.698,9.246h0.277v-7.344h18.172v64.465c0,9.792-3.19,16.456-8.462,21.218   c-5.964,5.438-15.121,7.888-25.663,7.888C261.729,723.039,249.799,714.88,247.857,701.279z M297.656,661.295   c0-10.2-5.548-18.904-16.923-18.904c-9.571,0-15.953,7.346-15.953,19.04c0,11.832,6.381,18.771,16.091,18.771   C292.801,680.199,297.656,671.631,297.656,661.295z"/>
	<path fill="#F02D09" d="M346.348,638.583h0.416c5.133-7.345,10.959-11.017,20.669-11.017c14.704,0,24.554,10.88,24.554,26.11   v45.562H373.12v-42.841c0-7.479-4.439-12.784-12.346-12.784c-8.323,0-14.428,6.526-14.428,16.049v39.576h-18.865v-97.241h18.865   L346.348,638.583L346.348,638.583z"/>
	<path fill="#F02D09" d="M403.639,601.998h18.866v16.592h-18.866V601.998z M403.639,629.471h18.866v69.771h-18.866V629.471z"/>
	<path fill="#F02D09" d="M422.921,721.407v-13.191c7.629-0.137,11.791-0.814,11.791-7.209v-71.536h18.866v72.488   c0,8.16-1.665,12.24-4.716,15.232c-3.607,3.672-9.155,5.03-15.261,5.03C430.134,722.224,425.834,721.951,422.921,721.407z    M434.712,601.998h18.866v16.592h-18.866V601.998z"/>
	<path fill="#F02D09" d="M492.696,667.415l-8.186,8.296v23.528h-18.727v-97.241h18.727v53.856l25.247-26.386h22.611l-26.218,26.521   l29.407,43.248h-22.89L492.696,667.415z"/>
	<path fill="#F02D09" d="M541.802,601.998h18.866v97.241h-18.866V601.998z"/>
	<path fill="#F02D09" d="M573.152,629.471h18.172v9.386h0.416c3.885-6.394,10.818-11.288,20.669-11.288   c9.017,0,16.229,4.896,19.698,12.238h0.275c4.855-7.614,12.348-12.238,21.362-12.238c14.979,0,23.442,9.521,23.442,24.752v46.921   h-18.864v-43.793c0-7.89-4.023-11.97-10.959-11.97c-7.907,0-12.764,5.984-12.764,15.232v40.528h-18.864v-43.793   c0-7.89-4.022-11.968-10.958-11.968c-7.631,0-12.765,5.982-12.765,15.23v40.528H573.15L573.152,629.471L573.152,629.471z"/>
	<path fill="#F02D09" d="M707.294,638.99h0.416c4.855-7.479,11.375-11.424,21.086-11.424c14.704,0,24.553,10.88,24.553,26.11v45.562   h-18.864v-42.841c0-7.479-4.438-12.784-12.348-12.784c-8.321,0-14.427,6.526-14.427,16.049v39.576h-18.865v-69.771h18.449V638.99   L707.294,638.99z"/>
	<path fill="#F02D09" d="M761.533,664.423c0-20.809,15.12-36.854,37.176-36.854c22.057,0,37.177,16.048,37.177,36.854   c0,20.81-15.12,36.856-37.177,36.856C776.653,701.279,761.533,685.231,761.533,664.423z M816.743,664.423   c0-13.601-6.521-22.849-18.034-22.849c-11.651,0-18.033,9.248-18.033,22.849c0,13.603,6.382,22.712,18.033,22.712   C810.223,687.135,816.743,678.023,816.743,664.423z"/>
	<path fill="#F02D09" d="M844.625,629.471h18.172v8.704h0.416c4.578-6.12,11.236-10.606,20.946-10.606   c18.866,0,30.935,15.096,30.935,36.854c0,22.576-12.482,36.856-30.796,36.856c-9.987,0-16.507-3.944-20.529-9.929h-0.276v30.735   h-18.865L844.625,629.471L844.625,629.471z M895.95,664.967c0-13.19-4.716-22.438-16.368-22.438   c-11.791,0-16.508,9.929-16.508,22.438c0,12.648,5.965,20.944,17.201,20.944C889.847,685.911,895.95,678.159,895.95,664.967z"/>
	<path fill="#F02D09" d="M254.239,811.352h-0.278c-3.468,5.575-9.849,9.93-19.42,9.93c-17.201,0-30.795-14.28-30.795-36.856   c0-21.761,11.93-36.854,30.795-36.854c9.71,0,15.675,3.942,19.976,10.606h0.416v-8.704h18.172v92.617H254.24L254.239,811.352   L254.239,811.352z M254.655,784.967c0-12.646-4.578-22.712-15.953-22.712c-11.791,0-15.814,9.521-15.814,22.712   c0,13.192,5.688,20.536,15.675,20.536S254.655,797.615,254.655,784.967z"/>
	<path fill="#F02D09" d="M303.484,760.623h0.417c4.3-7.889,9.155-11.969,17.478-11.969c2.081,0,3.33,0.136,4.439,0.544v16.185   h-0.417c-12.347-1.225-21.225,5.168-21.225,19.856v34h-18.866v-69.771h18.172L303.484,760.623L303.484,760.623z"/>
	<path fill="#F02D09" d="M329.564,796.663h17.479c1.249,8.024,7.075,11.56,15.536,11.56c8.323,0,13.04-3.128,13.04-8.021   c0-6.664-9.018-7.345-18.728-9.248c-12.762-2.448-25.247-5.849-25.247-21.08c0-15.097,12.763-22.305,28.992-22.305   c18.728,0,29.131,9.11,30.519,23.12h-17.062c-0.832-7.479-5.688-10.2-13.732-10.2c-7.353,0-12.207,2.721-12.207,7.752   c0,5.982,9.433,6.526,19.559,8.566c11.93,2.448,25.108,5.713,25.108,22.032c0,14.009-12.207,22.44-29.963,22.44   C342.188,821.279,330.674,811.487,329.564,796.663z"/>
	<path fill="#F02D09" d="M395.732,749.471h9.849V727.71h18.449v21.761h12.208v12.24H424.03v36.992c0,5.168,2.913,6.936,7.075,6.936   c2.356,0,5.549-0.136,5.549-0.136v13.601c0,0-4.301,0.271-11.791,0.271c-9.155,0-19.282-3.536-19.282-16.729V761.71h-9.849V749.471   L395.732,749.471z"/>
	<path fill="#F02D09" d="M490.892,819.239v-8.16h-0.416c-4.854,6.393-10.402,10.062-20.392,10.062   c-15.812,0-24.691-9.929-24.691-25.158V749.47h18.729v43.386c0,8.158,3.746,12.646,11.791,12.646   c8.878,0,14.288-6.528,14.288-15.775V749.47h18.866v69.771L490.892,819.239L490.892,819.239z"/>
	<path fill="#F02D09" d="M515.445,749.471h19.144l11.375,36.178c2.081,6.662,3.19,11.15,3.19,11.15h0.275   c0,0,0.973-4.488,3.054-11.15l11.65-36.178H583l-24.83,69.771h-18.033L515.445,749.471z"/>
	<path fill="#F02D09" d="M585.915,749.471h18.728l8.602,32.368c1.525,5.712,3.189,13.056,3.189,13.056h0.277   c0,0,1.525-7.479,3.052-13.189l8.878-32.232h16.093l9.294,32.232c1.524,5.848,3.328,13.189,3.328,13.189h0.276   c0,0,1.665-7.344,3.19-13.056l9.018-32.368h18.312l-21.225,69.771h-17.201l-9.433-34.272c-1.526-5.576-3.191-12.104-3.191-12.104   h-0.275c0,0-1.805,6.526-3.329,12.104l-9.71,34.272h-17.062L585.915,749.471z"/>
	<path fill="#F02D09" d="M715.756,782.247l-23.166-32.776h21.502l12.623,19.992h0.277l11.93-19.992h19.561l-22.058,32.642   l25.386,37.129h-22.473l-13.178-23.12h-0.277l-15.396,23.12h-20.669L715.756,782.247z"/>
	<path fill="#F02D09" d="M770.55,827.535h6.658c7.49,0,10.542-3.81,10.542-9.521c0-3.809-1.387-8.297-5.409-18.902l-19.144-49.643   h19.837l10.542,31.416c2.22,6.395,4.578,15.232,4.578,15.232h0.275c0,0,1.942-8.84,4.161-15.232l9.988-31.416h19.004l-24.83,71.536   c-5.41,15.505-10.682,21.081-25.106,21.081H770.55V827.535z"/>
	<path fill="#F02D09" d="M834.222,805.095l36.622-40.664v-0.406h-32.46v-14.554h54.377v14.824l-35.789,39.712v0.408h37.595v14.824   h-60.345V805.095z"/>
</g>
</svg>